<?xml version="1.0" standalone="no"?>
<!DOCTYPE svg PUBLIC "-//W3C//DTD SVG 20010904//EN"
 "http://www.w3.org/TR/2001/REC-SVG-20010904/DTD/svg10.dtd">
<svg version="1.0" xmlns="http://www.w3.org/2000/svg"
 width="701.000000pt" height="960.000000pt" viewBox="0 0 701.000000 960.000000"
 preserveAspectRatio="xMidYMid meet">
<metadata>
Created by potrace 1.13, written by Peter Selinger 2001-2015
</metadata>
<g transform="translate(0.000000,960.000000) scale(0.100000,-0.100000)"
fill="#000000" stroke="none">
<path d="M4860 8546 c0 -14 5 -28 10 -31 28 -17 426 -113 434 -105 6 6 5 19
-1 33 -10 21 -35 30 -217 76 -113 28 -210 51 -216 51 -5 0 -10 -11 -10 -24z"/>
<path d="M3737 8333 c-11 -10 -8 -6576 2 -6592 8 -12 218 -21 1278 -52 697
-20 1271 -35 1276 -32 4 2 7 1370 7 3039 l0 3034 -22 10 c-24 10 -2504 600
-2523 600 -6 0 -15 -3 -18 -7z m1007 -1220 c13 -24 15 -25 16 -8 0 16 2 17 9
5 6 -8 7 -18 5 -22 -3 -5 -2 -7 3 -6 34 9 99 -70 103 -127 3 -48 1 -55 -18
-55 -10 0 -28 -7 -40 -16 -28 -19 -67 -12 -82 16 -6 11 -19 20 -30 20 -28 0
-60 39 -60 74 0 53 19 103 40 109 11 3 20 12 20 21 0 25 18 19 34 -11z m1103
-263 c23 -7 53 -22 65 -34 27 -25 73 -33 64 -10 -3 7 -2 14 2 14 17 0 85 -40
103 -61 16 -19 19 -19 25 -6 5 15 7 15 22 0 10 -9 17 -21 17 -27 0 -6 12 -11
27 -10 15 0 26 -2 24 -4 -7 -6 46 -57 56 -54 21 6 38 -21 36 -55 -2 -37 -18
-57 -18 -24 0 14 -9 23 -25 27 -13 3 -29 12 -36 20 -16 20 -29 17 -29 -6 0
-11 -5 -20 -11 -20 -7 0 -9 10 -5 25 5 19 3 23 -9 19 -8 -4 -15 -16 -15 -29 0
-16 -6 -22 -17 -21 -10 0 -17 -4 -16 -10 1 -7 -8 -9 -24 -6 -20 4 -24 2 -18
-9 7 -11 6 -12 -6 -3 -20 15 -72 17 -63 2 4 -6 -3 -4 -17 5 -13 9 -32 17 -42
17 -14 0 -18 5 -14 20 3 11 0 18 -6 17 -6 -1 -17 9 -24 23 l-14 25 4 -27 c3
-18 0 -28 -8 -28 -7 0 -16 -7 -19 -16 -3 -8 -10 -12 -16 -9 -16 10 -33 -46
-21 -70 9 -20 10 -20 10 2 1 26 21 42 21 17 0 -39 17 6 19 50 1 15 4 16 16 6
8 -7 12 -16 10 -21 -3 -4 4 -6 15 -4 13 3 26 -4 36 -19 10 -17 21 -22 36 -18
17 4 20 2 15 -11 -3 -9 -2 -19 2 -22 5 -2 11 4 14 15 3 11 11 20 17 20 7 0 10
-6 7 -13 -7 -19 8 -43 17 -28 4 6 1 11 -6 11 -8 1 -6 6 5 15 11 7 25 11 33 8
8 -3 14 0 14 6 0 18 20 12 21 -6 1 -12 4 -10 9 7 4 14 8 19 9 13 2 -21 18 -15
24 8 5 17 9 19 26 9 12 -6 27 -8 33 -4 7 4 8 3 4 -4 -4 -7 -1 -12 6 -12 8 0
21 -13 31 -29 21 -36 21 -42 2 -35 -11 5 -14 1 -9 -12 5 -15 4 -16 -4 -4 -6 8
-9 17 -6 22 2 4 -5 12 -16 18 -11 6 -20 8 -20 4 0 -3 -7 -1 -15 6 -13 11 -15
7 -15 -25 0 -33 -2 -36 -16 -24 -14 12 -16 11 -12 -6 2 -11 10 -19 16 -17 7 1
13 -8 14 -20 2 -32 3 -39 16 -71 15 -35 15 -40 2 -32 -5 3 -10 16 -10 28 -1
20 -2 20 -11 4 -5 -9 -7 -23 -2 -30 4 -6 7 -23 6 -37 -1 -23 -1 -23 4 -2 2 12
8 20 13 17 11 -7 23 31 15 47 -4 7 3 2 14 -12 l21 -25 -3 30 c-2 17 -7 37 -11
44 -16 25 5 24 29 -2 25 -26 33 -43 16 -33 -13 9 -20 -43 -7 -57 19 -20 20
-51 2 -44 -9 4 -16 2 -16 -3 0 -6 7 -10 15 -10 8 0 15 -7 15 -16 0 -13 -3 -14
-15 -4 -8 6 -19 9 -25 5 -14 -9 20 -36 35 -28 5 3 4 0 -3 -8 -11 -11 -14 -12
-21 -1 -6 11 -10 10 -15 -5 -7 -17 -8 -17 -17 0 -6 9 -7 22 -4 27 3 6 1 10 -4
10 -6 0 -11 -4 -11 -10 0 -5 -7 -10 -16 -10 -13 0 -15 -12 -13 -67 4 -106 1
-135 -13 -131 -7 3 -19 15 -25 29 -9 16 -13 19 -13 8 0 -9 7 -22 15 -29 8 -7
15 -20 15 -29 0 -14 2 -14 10 -1 8 12 10 11 10 -8 0 -12 7 -25 15 -28 9 -4 15
-11 14 -18 -1 -6 -1 -20 0 -31 1 -17 3 -18 11 -5 8 13 10 12 10 -2 0 -22 -18
-24 -26 -3 -7 18 -26 20 -23 3 4 -32 -2 -49 -13 -42 -10 6 -10 4 0 -7 14 -16
16 -33 2 -24 -5 3 -10 1 -10 -6 0 -7 -7 -4 -15 7 -8 10 -14 15 -15 9 0 -18 18
-38 28 -31 6 3 13 2 16 -3 4 -5 2 -12 -4 -16 -5 -3 -10 -14 -9 -23 0 -14 2
-13 9 3 8 20 9 19 9 -1 1 -12 8 -27 16 -34 8 -7 15 -18 15 -24 0 -6 -5 -3 -11
7 -19 32 -24 17 -22 -63 2 -52 -1 -79 -7 -75 -6 4 -8 11 -5 16 4 5 2 9 -4 9
-5 0 -9 22 -7 48 1 34 -2 49 -11 49 -8 0 -13 -13 -13 -31 0 -17 -4 -38 -10
-46 -6 -9 -5 -17 2 -21 7 -5 4 -16 -9 -33 l-21 -26 -26 21 c-20 16 -25 26 -20
45 4 14 2 24 -5 24 -6 0 -11 -4 -11 -10 0 -5 -7 -7 -16 -3 -12 5 -15 15 -11
44 4 31 2 39 -10 39 -11 0 -14 -6 -9 -22 3 -13 6 -35 6 -50 0 -16 6 -28 13
-28 14 0 57 -52 57 -70 0 -17 -12 -11 -46 25 -19 18 -34 43 -34 54 0 28 -11
52 -21 45 -5 -3 -12 2 -15 10 -3 9 -15 16 -25 16 -10 0 -19 5 -19 11 0 6 -6 9
-14 6 -14 -6 -26 12 -26 36 0 7 7 4 14 -6 18 -23 27 -3 15 31 -5 12 -5 22 1
22 5 0 12 -10 15 -21 5 -15 10 -18 15 -10 5 9 11 9 23 -3 22 -23 28 -20 21 10
-6 23 -4 25 15 19 12 -3 21 -2 21 4 0 16 -20 24 -33 13 -9 -8 -12 -4 -13 14
-1 13 2 24 7 24 5 0 9 -4 9 -9 0 -5 9 -7 19 -4 13 3 23 -2 30 -16 8 -14 8 -21
1 -21 -5 0 -10 -4 -10 -10 0 -5 7 -10 15 -10 16 0 18 12 9 48 -4 13 -14 22
-25 22 -20 0 -35 39 -26 65 10 25 -8 25 -20 -1 -6 -14 -7 -26 -2 -30 14 -8 11
-21 -6 -21 -8 0 -14 7 -13 15 2 8 -3 17 -10 19 -7 3 -11 -1 -10 -8 3 -13 -2
-15 -38 -18 -8 0 -12 -6 -8 -12 4 -7 -1 -10 -11 -7 -32 6 -27 24 10 38 19 8
35 20 35 27 0 10 -5 11 -19 3 -11 -5 -23 -15 -27 -22 -5 -8 -10 -6 -15 8 -7
17 -8 17 -8 2 -1 -24 -18 -23 -30 1 -12 21 -5 32 13 25 7 -3 13 1 13 9 0 7 -6
14 -14 14 -7 0 -13 -4 -13 -9 0 -5 -5 -6 -10 -3 -11 7 30 65 41 59 4 -2 9 3
13 11 7 20 -8 19 -24 0 -7 -9 -19 -14 -27 -11 -13 5 -17 -4 -14 -34 1 -11 -3
-9 -15 5 -15 18 -16 18 -10 2 3 -10 6 -23 6 -28 0 -6 5 -7 10 -4 6 4 10 -5 10
-19 0 -14 -4 -26 -10 -26 -5 0 -9 -10 -9 -22 1 -17 2 -19 6 -5 7 27 23 20 30
-13 3 -16 9 -31 14 -31 5 -1 13 -2 18 -3 5 0 12 -4 16 -8 4 -4 12 -5 18 -4 7
2 9 1 5 -1 -5 -3 -8 -14 -8 -26 -1 -21 -2 -21 -25 5 -33 38 -49 39 -52 3 -2
-30 -8 -83 -11 -97 -1 -5 -8 -8 -16 -8 -22 0 -45 39 -40 69 3 22 2 23 -6 9 -8
-13 -7 -30 4 -60 12 -37 12 -46 0 -63 -8 -10 -14 -34 -14 -52 0 -36 -19 -45
-27 -13 -3 11 -11 20 -19 20 -22 0 -25 16 -9 54 17 40 35 48 35 15 0 -11 -3
-18 -7 -16 -5 3 -8 -6 -8 -19 0 -13 5 -24 11 -24 7 0 12 6 11 13 -1 34 4 48
15 41 8 -5 9 -2 5 10 -4 10 -7 25 -7 34 0 12 -3 13 -12 4 -14 -14 -32 -16 -23
-3 3 5 1 12 -5 16 -5 3 -12 -6 -16 -20 -3 -14 -10 -25 -16 -25 -5 0 -6 -4 -3
-10 3 -5 0 -20 -7 -32 -7 -13 -13 -27 -13 -33 -1 -5 -7 -9 -14 -7 -9 2 -12 -4
-8 -18 8 -31 -10 -24 -21 9 -9 25 -8 29 4 24 16 -6 20 22 4 32 -6 4 -10 16 -8
28 2 15 -5 25 -24 35 -18 8 -28 21 -28 35 -1 22 -1 22 -15 3 -15 -19 -15 -19
-15 3 0 14 4 20 11 15 9 -5 10 1 5 20 -4 15 -2 26 4 26 5 0 10 -10 10 -22 1
-29 19 -52 45 -56 17 -2 15 1 -7 19 -16 11 -28 29 -28 39 0 10 -7 25 -15 33
-9 9 -11 17 -4 19 9 3 15 21 18 51 1 4 7 7 14 7 8 0 22 17 33 37 15 28 28 39
54 44 42 9 44 7 36 -26 -5 -19 -11 -25 -24 -21 -13 4 -21 -2 -29 -24 -12 -31
-6 -39 15 -18 6 6 15 8 19 3 5 -4 2 -10 -5 -12 -6 -3 -10 -9 -6 -14 3 -5 -6
-9 -20 -9 -16 0 -26 6 -26 15 0 8 -6 15 -13 15 -14 0 -16 -38 -3 -58 6 -10 11
-10 21 -2 11 9 17 7 27 -9 7 -12 18 -21 25 -21 7 0 13 -5 13 -11 0 -5 -4 -8
-9 -5 -9 6 -26 -22 -23 -36 1 -5 -3 -8 -8 -8 -6 0 -10 9 -10 20 0 13 -10 24
-27 31 -15 6 -31 16 -36 22 -5 8 -7 5 -5 -7 2 -11 5 -18 8 -16 3 2 15 -2 28
-9 23 -12 30 -45 11 -57 -8 -4 -7 -9 2 -15 11 -6 11 -11 2 -20 -12 -12 -7 -39
9 -39 5 0 6 9 3 20 -4 14 -1 22 10 26 9 4 14 12 12 18 -5 12 18 38 25 30 3 -2
9 16 15 41 9 38 8 43 -4 34 -11 -10 -12 -8 -7 6 6 14 4 16 -6 10 -8 -5 -11 -4
-7 3 4 5 16 8 27 5 12 -3 20 -2 19 3 -1 5 -1 23 0 39 1 21 4 26 10 17 7 -11 9
-11 14 2 4 9 3 15 -1 15 -23 -4 -29 6 -31 49 -1 26 -6 51 -12 57 -5 5 -9 5 -9
0 0 -4 -10 0 -22 11 -17 14 -20 15 -9 2 15 -20 6 -42 -14 -34 -8 3 -15 -2 -17
-11 -3 -15 -5 -15 -20 1 -10 10 -18 21 -18 26 0 5 8 7 18 4 9 -2 7 1 -5 7 -13
7 -23 19 -23 27 0 9 -3 13 -6 9 -4 -3 -2 -20 4 -36 8 -22 8 -31 0 -31 -7 0 -7
-4 -1 -12 13 -16 13 -48 0 -48 -5 0 -7 -7 -3 -15 3 -8 1 -15 -4 -15 -5 0 -10
10 -12 22 -4 29 -24 34 -31 7 -3 -11 -10 -18 -15 -15 -5 3 -12 -4 -15 -17 -2
-12 -12 -40 -22 -62 -17 -40 -17 -40 3 -19 10 11 25 36 31 56 12 38 38 58 38
30 0 -8 -11 -36 -23 -60 -13 -25 -20 -50 -17 -55 3 -6 1 -7 -5 -3 -8 5 -12 -1
-12 -18 0 -14 -4 -28 -10 -31 -5 -3 -10 -17 -10 -31 0 -14 -4 -23 -9 -20 -5 3
-11 -1 -15 -9 -3 -8 0 -15 6 -15 7 0 6 -5 -2 -15 -6 -8 -9 -19 -5 -25 4 -6 2
-16 -4 -23 -5 -7 -8 -22 -6 -32 2 -11 4 -26 4 -33 1 -8 7 -12 14 -9 6 2 25 -7
41 -20 19 -16 32 -21 39 -14 12 12 -1 34 -14 25 -11 -7 -38 24 -39 44 0 20 17
14 23 -8 3 -13 10 -18 21 -14 11 4 19 -2 25 -17 6 -14 10 -17 11 -9 0 11 7 8
21 -9 l20 -25 -6 30 c-4 16 -8 34 -10 41 -2 7 0 15 5 18 16 10 31 -89 16 -113
-12 -20 -27 -73 -33 -117 -3 -22 -10 -46 -15 -53 -6 -7 -11 -22 -12 -34 0 -12
-7 -23 -15 -26 -10 -3 -12 1 -8 19 3 12 1 30 -6 38 -10 12 -9 13 2 6 11 -6 13
-4 8 8 -3 9 -2 19 3 22 5 3 6 13 3 22 -5 12 -3 14 7 8 10 -6 12 -3 8 13 -4 12
-2 20 3 16 5 -3 9 3 9 13 0 12 -8 19 -20 20 -11 1 -34 11 -50 23 -17 12 -30
16 -30 10 0 -15 26 -41 34 -33 7 7 36 -16 36 -29 0 -5 -9 -4 -20 2 -11 6 -20
8 -20 4 0 -3 -7 0 -16 7 -14 12 -16 11 -12 -6 2 -12 11 -19 20 -17 17 3 45
-25 34 -35 -3 -3 -17 -1 -30 5 -23 10 -24 10 -22 -26 3 -45 24 -92 42 -92 7 0
21 -16 30 -35 9 -19 20 -36 25 -36 5 -1 14 -3 19 -4 6 -1 15 -3 21 -4 5 0 7
-5 4 -11 -4 -6 1 -7 11 -3 12 4 15 3 10 -5 -4 -7 -1 -12 9 -12 12 0 15 -6 10
-21 -4 -12 -3 -24 2 -28 16 -11 56 -109 49 -120 -4 -6 -2 -11 4 -11 7 0 9 -7
6 -16 -3 -8 -2 -13 3 -10 5 3 11 -4 14 -15 3 -12 10 -18 16 -15 5 4 12 2 15
-3 4 -5 2 -12 -4 -16 -16 -10 -12 -25 8 -26 10 0 12 -3 5 -6 -15 -5 -18 -33
-4 -33 5 0 7 -9 4 -21 -4 -12 0 -25 8 -30 12 -7 12 -11 1 -18 -11 -7 -11 -10
0 -22 12 -13 17 -38 19 -92 0 -9 3 -15 7 -13 4 2 6 -17 5 -44 -3 -41 1 -52 19
-66 l23 -16 -22 5 c-12 3 -24 0 -27 -7 -4 -11 -10 19 -7 39 1 6 -5 2 -13 -8
-11 -14 -16 -15 -22 -5 -5 8 -12 -5 -20 -37 l-12 -50 2 82 c1 56 -3 86 -12 95
-11 11 -11 8 -2 -16 7 -20 8 -38 1 -55 -5 -14 -12 -48 -16 -75 -9 -68 -16 -85
-26 -60 -6 16 -8 14 -8 -9 -1 -16 3 -26 9 -22 14 9 12 -17 -5 -58 -9 -23 -15
-71 -16 -129 -1 -77 -2 -87 -10 -60 -12 40 -42 41 -47 2 -5 -36 -22 -50 -22
-18 0 35 24 89 49 112 12 11 21 28 21 39 0 16 -6 13 -35 -16 -20 -20 -40 -37
-46 -39 -6 -2 -19 -28 -29 -58 -15 -43 -19 -49 -20 -27 0 18 -4 26 -11 21 -7
-4 -9 0 -6 12 4 11 11 41 18 68 9 35 25 62 57 95 51 53 62 82 62 163 l0 58
-32 1 -33 2 30 6 c34 7 33 4 41 137 l5 92 -35 4 c-53 6 -66 -6 -66 -57 0 -25
-4 -45 -10 -45 -5 0 -10 -6 -10 -12 0 -7 -12 -19 -27 -25 -24 -11 -30 -10 -49
8 l-23 21 1 -38 c0 -22 -12 -65 -26 -98 -14 -32 -26 -65 -26 -72 0 -21 -57
-77 -65 -64 -5 8 -11 8 -21 -1 -15 -12 -11 -56 7 -90 21 -40 69 -190 64 -199
-3 -6 -1 -10 4 -10 6 0 11 -8 11 -17 0 -10 7 -36 14 -58 8 -22 16 -54 19 -71
3 -17 10 -40 15 -51 6 -11 8 -24 4 -29 -4 -5 -5 -8 -3 -6 11 7 40 -87 40 -130
1 -42 -2 -48 -19 -48 -11 0 -20 -5 -20 -10 0 -7 -6 -7 -19 -1 -10 6 -21 8 -24
5 -2 -3 -15 9 -27 25 -12 17 -26 31 -31 31 -6 0 -8 -4 -5 -9 3 -5 -1 -12 -9
-15 -10 -4 -19 2 -25 17 -6 16 -9 17 -9 5 -1 -9 -5 -20 -11 -23 -6 -4 -7 1 -3
11 5 14 3 16 -11 11 -10 -4 -15 -3 -11 3 3 6 -1 10 -11 10 -13 0 -14 3 -5 14
9 11 6 12 -14 8 -22 -4 -24 -7 -13 -20 8 -9 8 -13 2 -9 -7 4 -14 -2 -17 -14
-5 -18 -2 -21 23 -17 25 4 28 2 17 -11 -10 -12 -9 -14 4 -9 9 4 16 1 16 -6 0
-8 -11 -10 -29 -8 -15 2 -25 8 -22 13 3 5 -2 9 -11 9 -9 0 -13 -5 -10 -10 4
-6 1 -9 -7 -8 -7 2 -18 12 -24 22 -9 16 -22 20 -60 19 -27 -1 -53 1 -58 4 -5
3 -25 7 -44 9 -22 2 -44 12 -56 27 -12 12 -17 17 -12 10 5 -8 5 -17 1 -21 -4
-4 -10 -2 -12 5 -2 7 -10 10 -17 7 -8 -3 -16 4 -19 15 -3 12 -10 21 -17 21 -6
0 -8 -5 -4 -11 3 -6 -8 -3 -26 6 -17 9 -34 14 -37 11 -3 -3 -16 6 -29 19 -13
14 -32 25 -44 25 -11 0 -20 5 -20 11 0 6 -7 9 -15 6 -8 -4 -17 -2 -20 4 -4 5
-10 7 -15 4 -5 -3 -22 1 -38 9 -15 8 -45 18 -66 22 -36 6 -39 5 -33 -15 3 -11
1 -21 -4 -21 -5 0 -9 -9 -9 -21 0 -11 5 -17 10 -14 6 4 7 11 4 17 -4 6 -2 8 4
4 5 -3 13 0 15 6 3 7 6 8 6 2 1 -14 -37 -54 -52 -54 -7 0 -6 -4 3 -10 9 -6 10
-10 3 -10 -9 0 -56 63 -59 80 -7 39 -18 57 -32 53 -12 -3 -21 6 -31 29 -17 41
-21 53 -21 63 0 3 -9 14 -20 25 l-21 21 -19 -23 c-11 -13 -19 -33 -20 -45 0
-13 -4 -23 -9 -23 -4 0 -11 -33 -15 -72 -9 -95 -28 -189 -34 -163 -2 11 -18
54 -34 95 -17 41 -32 84 -34 95 -6 30 -43 157 -47 161 -6 7 -67 -55 -67 -68 0
-9 -3 -9 -11 -1 -15 15 -4 77 16 93 8 7 25 10 38 7 22 -6 22 -5 25 111 1 64 9
146 18 182 8 36 19 85 24 110 8 43 19 68 59 135 20 34 20 55 -3 140 -9 33 -18
73 -21 89 l-6 29 -89 -6 c-88 -6 -90 -6 -96 17 -3 13 -4 38 -2 57 2 26 9 35
28 41 14 4 56 16 94 28 38 11 83 20 100 20 18 0 41 6 52 14 11 8 39 19 63 26
40 10 42 13 29 31 -13 19 -191 107 -335 165 -82 33 -83 35 -83 170 0 82 9 105
33 86 7 -5 34 -15 61 -21 27 -7 68 -23 90 -36 23 -12 70 -33 106 -46 36 -12
72 -28 80 -34 28 -22 49 -25 59 -7 9 16 10 16 16 0 4 -10 13 -18 19 -18 7 0
21 -12 33 -27 11 -16 41 -36 70 -46 27 -10 76 -35 109 -57 67 -45 84 -48 108
-21 21 23 22 42 12 249 -10 222 -28 256 -142 251 -27 -1 -65 2 -85 6 -31 6
-37 4 -42 -14 -6 -24 -27 -28 -27 -5 0 9 -5 12 -12 8 -9 -6 -9 -3 0 9 17 20 8
37 -19 37 -24 0 -24 12 -1 33 21 19 28 76 10 79 -7 0 -18 2 -25 2 -7 1 -18 9
-25 17 -19 24 -90 47 -198 64 -52 8 -124 21 -160 28 l-65 14 -3 241 c-1 133 0
242 3 242 2 0 31 -13 62 -29 123 -61 232 -112 326 -152 53 -23 107 -49 120
-58 12 -10 42 -25 66 -35 25 -9 72 -36 104 -59 40 -28 62 -38 64 -29 3 6 10
12 17 12 8 0 18 23 24 55 14 67 47 115 79 115 38 0 90 -26 108 -54 12 -18 18
-50 19 -110 1 -83 2 -86 36 -121 27 -28 40 -35 60 -30 l25 6 -25 -20 c-20 -16
-22 -23 -14 -43 6 -13 7 -40 3 -63 -4 -22 -8 -50 -8 -63 -1 -23 -1 -23 29 -5
23 13 30 25 30 48 0 61 19 99 76 152 48 45 55 55 44 68 -11 13 -10 14 3 9 13
-5 14 -1 8 22 -8 33 8 76 27 69 8 -3 15 7 19 25 3 17 9 30 14 30 5 0 14 20 20
45 11 45 23 56 32 33 4 -10 6 -10 6 -1 1 6 -4 15 -9 18 -8 5 -7 11 1 21 14 17
-2 19 -21 2 -12 -11 -12 -10 -1 5 7 9 20 17 27 17 8 0 14 5 14 11 0 5 4 8 9 4
6 -3 8 3 6 14 -2 11 3 22 11 25 9 3 12 10 9 16 -4 6 -11 8 -16 5 -5 -3 -6 1
-3 9 3 8 11 13 19 10 7 -3 15 1 18 9 4 12 -5 15 -48 13 -30 -1 -57 -5 -61 -8
-3 -4 -12 -4 -20 -1 -10 3 -12 0 -8 -10 3 -8 1 -18 -5 -22 -6 -3 -9 0 -5 8 3
8 1 18 -4 21 -6 3 -12 -1 -16 -9 -3 -8 -12 -15 -20 -15 -12 0 -8 -12 14 -47
17 -26 30 -52 30 -57 0 -6 -10 6 -22 27 -13 22 -33 40 -48 44 -13 4 -31 13
-39 20 -8 8 -22 12 -33 10 -10 -3 -16 -1 -12 4 3 5 1 9 -4 9 -11 0 -35 50 -28
58 3 3 -2 11 -12 19 -9 8 -12 12 -5 9 24 -12 22 13 -2 32 -20 16 -24 25 -19
51 4 19 2 37 -6 46 -10 12 -9 15 4 15 10 0 21 -13 27 -30 12 -33 24 -38 33
-15 10 27 44 16 92 -31 33 -32 49 -56 53 -82 l6 -36 70 3 c75 3 82 5 87 36 2
13 -2 20 -13 19 -9 -1 -16 5 -16 12 0 9 5 10 18 3 23 -12 47 -2 87 37 30 29
32 35 21 56 -12 22 -11 23 8 5 19 -16 20 -16 31 8 7 14 12 33 12 42 0 9 3 13
7 10 3 -4 12 1 20 11 8 9 12 12 9 5 -7 -14 10 -27 18 -14 3 5 -4 20 -15 35
-17 21 -24 24 -40 16 -21 -12 -26 -1 -8 17 15 15 71 5 82 -14 7 -12 12 -10 25
9 9 12 16 26 15 29 -5 15 38 16 46 2 6 -12 15 -14 37 -7 16 4 40 8 53 9 19 0
26 8 36 42 7 23 10 45 6 49 -3 4 5 0 19 -8 14 -8 44 -21 67 -28z m-974 -372
c16 -18 34 -32 38 -31 4 2 11 -6 14 -17 4 -11 11 -18 16 -14 5 3 2 18 -8 35
-14 23 -15 31 -4 41 7 7 12 9 11 3 -5 -24 1 -45 17 -61 21 -20 24 -51 6 -58
-7 -3 -13 -14 -13 -25 0 -11 -4 -22 -9 -25 -11 -7 -21 18 -21 54 0 38 -18 48
-26 15 -5 -22 -34 -37 -34 -17 0 4 -16 9 -37 10 -49 4 -53 7 -53 52 0 29 6 43
22 54 32 23 46 20 81 -16z m807 -973 c-6 -7 -8 -26 -5 -42 3 -15 2 -22 -1 -15
-8 17 -25 15 -18 -3 4 -8 1 -22 -6 -30 -7 -8 -9 -22 -6 -31 3 -9 3 -21 -1 -27
-11 -18 -12 -36 -2 -43 5 -3 11 2 14 10 3 9 8 24 12 34 3 9 5 22 4 29 -2 17
19 27 32 14 8 -8 8 -11 -2 -11 -9 0 -11 -8 -7 -26 4 -15 3 -23 -3 -20 -13 8
-21 -20 -9 -32 13 -13 2 -32 -20 -32 -12 0 -13 -3 -5 -11 12 -12 7 -39 -8 -39
-5 0 -9 16 -9 35 0 19 -4 35 -10 35 -5 0 -9 -12 -9 -27 0 -46 -4 -62 -13 -57
-4 3 -8 2 -9 -3 0 -4 -2 -16 -4 -25 -2 -10 1 -20 6 -24 5 -3 9 0 9 5 0 6 5 11
11 11 5 0 7 -5 4 -11 -4 -6 2 -5 14 3 22 14 28 30 10 26 -6 -2 -13 2 -16 8 -2
6 3 11 11 11 8 0 17 -6 20 -14 7 -16 -3 -43 -15 -43 -5 0 -9 -7 -9 -15 0 -8
-4 -15 -10 -15 -12 0 -50 37 -49 48 4 21 -3 31 -16 26 -17 -7 -19 9 -5 41 8
19 11 18 14 -5 0 -5 6 -11 11 -12 6 -2 11 16 13 40 2 23 7 42 12 42 5 0 7 7 4
15 -4 8 -1 22 6 30 13 15 5 55 -11 55 -6 0 -7 -4 -4 -10 3 -5 1 -10 -4 -10
-14 0 -14 27 -1 35 6 3 10 17 10 31 0 13 5 24 11 24 6 0 9 -8 6 -17 -2 -10 -6
-24 -8 -32 -2 -7 2 -16 9 -18 7 -3 12 4 12 16 0 31 31 102 42 95 5 -3 5 -11
-2 -19z m307 -1350 c-4 -8 -3 -16 2 -19 4 -3 6 -28 4 -55 -3 -33 0 -51 7 -51
6 0 8 5 4 12 -5 7 -3 8 6 3 10 -6 10 -10 -2 -19 -24 -18 -31 -52 -13 -69 11
-12 12 -16 2 -20 -9 -3 -9 -8 2 -20 10 -12 10 -17 2 -17 -8 0 -6 -6 4 -16 9
-9 14 -23 11 -30 -3 -8 -1 -14 4 -14 6 0 10 7 10 16 0 12 5 10 19 -7 12 -15
15 -26 9 -30 -6 -4 2 -6 16 -6 14 0 26 4 26 9 0 5 -4 6 -10 3 -5 -3 -10 1 -10
9 0 8 -8 20 -17 25 -12 7 -13 11 -5 11 7 0 21 -8 30 -17 16 -16 17 -15 20 3 2
10 9 24 16 29 7 6 14 13 14 18 3 12 42 48 42 38 0 -6 -10 -17 -22 -25 -12 -9
-18 -16 -13 -16 6 0 2 -6 -7 -14 -19 -14 -39 -104 -20 -92 6 4 8 14 5 24 -3 9
-2 14 2 9 5 -4 9 -17 10 -29 2 -27 25 -37 25 -11 0 15 2 16 10 3 13 -20 13
-33 0 -25 -5 3 -10 3 -11 -2 0 -4 -2 -18 -3 -30 -1 -12 1 -20 6 -17 5 4 7 12
4 20 -3 8 -2 14 3 14 4 0 9 -62 10 -137 1 -123 0 -135 -14 -118 -8 11 -15 24
-15 29 0 5 -10 24 -21 43 -17 27 -24 32 -31 21 -6 -9 -7 -5 -2 12 3 14 3 22
-1 18 -4 -4 -14 0 -22 8 -12 12 -18 12 -30 3 -9 -8 -10 -14 -3 -19 7 -4 3 -13
-10 -25 -17 -15 -23 -16 -33 -5 -10 10 -9 12 6 7 19 -7 20 -6 11 17 -3 9 -13
16 -21 16 -8 0 -12 4 -9 8 2 4 1 14 -4 22 -7 12 -11 12 -27 -1 -17 -13 -17
-13 -4 4 17 21 22 57 9 57 -5 0 -7 4 -4 9 4 5 1 11 -4 13 -6 2 -13 12 -15 23
-2 11 -4 21 -4 23 -1 1 -2 5 -3 10 -1 4 -7 13 -12 20 -6 7 -15 18 -21 25 -13
16 -12 47 3 74 7 12 12 30 12 39 0 11 3 14 9 9 13 -14 24 -56 14 -54 -20 3
-34 -2 -28 -10 3 -6 15 -8 26 -6 15 3 19 0 16 -10 -3 -7 1 -19 8 -25 12 -10
16 -9 21 5 4 9 1 20 -5 25 -14 8 -14 19 0 37 6 6 6 14 1 17 -5 3 -7 33 -4 68
5 75 9 138 11 156 1 6 4 12 7 12 3 0 4 -7 1 -15z m-101 -452 c21 -43 37 -81
36 -85 -2 -7 12 -12 29 -10 3 1 6 -6 6 -13 0 -12 -4 -12 -16 -3 -9 6 2 -5 24
-25 25 -23 50 -36 68 -37 28 0 37 17 13 26 -16 6 -11 34 6 34 5 0 6 -4 3 -10
-3 -5 -1 -10 5 -10 6 0 8 -4 5 -10 -3 -5 -1 -10 5 -10 6 0 9 -4 6 -9 -4 -5 -1
-11 6 -13 6 -2 8 -10 4 -16 -10 -16 -29 -15 -20 1 6 10 4 10 -7 0 -7 -7 -18
-13 -23 -13 -6 0 -4 5 4 11 12 9 11 10 -7 6 -13 -3 -25 -1 -29 4 -3 5 -15 14
-27 20 -16 8 -12 1 12 -25 42 -43 53 -76 18 -53 -12 8 -21 22 -21 31 1 9 -2
14 -6 11 -5 -3 -16 5 -24 17 -9 12 -16 17 -16 11 0 -7 5 -15 10 -18 6 -3 10
-23 10 -44 0 -26 7 -46 23 -63 12 -13 29 -33 37 -44 14 -18 14 -18 -2 -5 -10
7 -18 10 -18 5 0 -5 -4 -2 -10 6 -8 13 -10 12 -15 -1 -4 -11 -16 -15 -34 -13
l-27 3 1 -67 c1 -76 16 -114 43 -106 14 5 15 4 2 -5 -9 -7 -10 -11 -3 -11 6 0
15 5 18 10 5 8 11 7 21 -1 11 -9 14 -8 15 2 0 11 2 11 6 1 4 -10 9 -9 24 4 14
13 16 20 8 25 -7 4 -14 35 -15 70 -2 42 0 59 7 52 5 -5 11 -21 11 -34 1 -13 6
-30 12 -37 7 -9 6 -16 -2 -21 -7 -4 -8 -12 -2 -21 7 -11 10 -12 10 -2 0 7 5
10 11 6 8 -4 9 1 4 17 -8 24 -8 24 14 5 24 -22 28 -56 6 -56 -8 0 -15 5 -15
11 0 23 -23 1 -24 -23 -2 -24 0 -25 21 -11 13 9 23 13 23 9 0 -13 -5 -21 -15
-21 -5 -1 -18 -5 -29 -10 -11 -5 -26 -4 -37 4 -15 9 -19 8 -20 -1 0 -10 -2
-10 -6 0 -2 6 -9 12 -14 12 -6 0 -7 -6 -3 -12 5 -9 2 -9 -9 1 -9 7 -17 11 -17
7 0 -3 -9 3 -20 14 -11 11 -20 24 -20 29 0 16 -84 8 -97 -9 -7 -8 -13 -11 -13
-6 0 5 -8 2 -17 -5 -15 -13 -16 -12 -11 9 7 24 -15 32 -28 11 -4 -8 -13 -1
-22 17 -22 40 -25 53 -26 106 -1 37 -4 44 -14 36 -7 -6 -12 -21 -11 -32 0 -12
1 -34 0 -51 -1 -23 -3 -27 -11 -15 -5 8 -10 11 -10 6 0 -5 -9 1 -20 14 -11 13
-20 29 -20 37 0 16 -1 16 -37 2 -23 -8 -26 -8 -15 2 14 15 16 30 3 27 -10 -3
-51 40 -51 54 0 5 -5 6 -11 2 -8 -4 -9 1 -4 15 4 14 -2 47 -16 86 -25 71 -21
92 29 153 24 29 40 38 75 41 4 1 7 13 7 27 0 23 2 25 16 13 13 -10 17 -10 24
1 12 19 20 9 23 -29 1 -18 8 -31 15 -31 8 0 19 -13 25 -30 6 -16 15 -30 20
-30 4 0 6 -4 3 -8 -3 -5 17 -8 43 -9 26 0 54 -4 61 -8 8 -5 11 -4 7 2 -3 5 0
10 8 10 8 0 14 -3 13 -6 -2 -19 4 -24 12 -11 7 11 10 11 10 2 0 -7 4 -11 9 -7
6 3 15 -4 21 -15 6 -11 15 -20 20 -20 4 0 -1 18 -13 39 -12 22 -26 39 -32 38
-5 -1 -9 4 -7 11 1 8 -2 11 -7 8 -9 -6 -52 30 -81 68 -14 18 -14 18 6 6 12 -7
28 -25 37 -39 10 -16 17 -20 17 -11 0 13 1 13 10 0 8 -12 10 -11 10 6 0 11 -4
24 -9 30 -11 12 -31 97 -30 126 1 16 4 11 10 -14 4 -20 25 -72 45 -115z m-828
-1153 l32 0 0 -80 0 -80 -32 0 c-75 0 -78 4 -78 92 0 78 1 80 23 74 12 -3 37
-6 55 -6z m-620 -36 l52 -5 0 -139 0 -139 -132 5 c-73 3 -148 7 -165 10 l-33
5 0 140 0 141 113 -6 c61 -4 136 -9 165 -12z m1468 -49 c30 -45 -13 -100 -46
-60 -11 13 -16 12 -39 -8 -15 -12 -42 -33 -59 -46 -18 -13 -32 -30 -32 -37 0
-7 26 -35 57 -63 53 -48 58 -50 75 -34 14 13 21 13 32 3 22 -18 29 -46 16 -70
-15 -28 -48 -26 -55 3 -4 13 -33 47 -66 76 -45 40 -63 50 -73 42 -22 -19 -48
10 -44 49 3 32 6 35 36 35 23 0 48 12 87 42 30 24 55 49 55 56 0 14 19 37 32
37 4 0 15 -11 24 -25z"/>
<path d="M5633 6503 c-7 -2 -13 -12 -13 -21 0 -9 -20 -36 -45 -60 -25 -24 -45
-47 -45 -52 0 -6 -7 -10 -16 -10 -10 0 -14 -6 -10 -15 3 -10 -1 -15 -13 -15
-10 0 -22 -7 -25 -16 -3 -9 -13 -14 -20 -11 -15 6 -38 -14 -35 -29 5 -19 -14
-63 -28 -68 -9 -4 -13 -14 -10 -26 4 -15 -2 -24 -20 -34 -18 -9 -22 -15 -14
-20 9 -6 9 -11 0 -22 -6 -8 -9 -17 -6 -21 4 -3 -3 -14 -14 -24 -12 -10 -18
-22 -15 -27 3 -6 -1 -15 -9 -22 -18 -15 -20 -34 -3 -24 6 4 2 -9 -11 -29 -13
-21 -24 -47 -27 -60 -7 -47 -17 -82 -24 -87 -4 -3 -4 -14 1 -25 6 -17 8 -17 8
-2 1 9 5 17 10 17 5 0 7 9 4 20 -3 11 0 20 6 20 6 0 11 11 11 25 0 14 5 25 11
25 5 0 8 4 4 9 -3 5 6 30 19 55 14 26 20 44 15 41 -14 -9 -11 11 5 24 7 6 16
24 20 39 3 15 10 34 16 42 9 13 11 13 20 0 7 -11 8 -5 5 20 -2 19 0 37 5 40 5
3 11 17 14 32 2 14 12 37 20 51 9 13 14 33 10 43 -5 16 -4 16 5 4 9 -13 14
-13 31 -2 11 7 25 10 30 7 5 -3 11 4 15 14 5 17 10 19 31 9 15 -7 24 -19 24
-35 0 -12 4 -23 8 -23 4 0 7 15 7 34 0 19 -2 33 -5 31 -13 -8 -30 13 -24 28 3
9 10 15 14 12 5 -3 11 4 15 15 7 23 15 25 35 8 12 -11 12 -10 2 4 -9 10 -9 18
-3 22 6 4 7 14 4 23 -5 12 -2 15 10 10 11 -4 17 -1 17 7 0 8 -6 17 -12 19 -8
3 -6 6 5 6 9 1 17 8 17 16 0 15 -6 17 -27 8z"/>
<path d="M5080 5740 c-95 -17 -138 -67 -146 -167 -3 -37 -9 -99 -13 -138 -4
-38 -6 -73 -4 -78 2 -4 16 -5 31 -2 l27 5 -28 -11 c-21 -8 -27 -16 -24 -29 3
-11 -1 -21 -9 -24 -30 -11 38 -149 101 -203 36 -31 41 -32 50 -17 21 35 77 98
90 100 22 3 84 35 96 50 10 12 9 18 -4 31 -14 15 -18 14 -48 -11 -26 -22 -39
-26 -63 -22 -41 8 -82 50 -102 103 -33 85 1 204 62 219 29 8 30 15 3 32 -12 7
-18 16 -15 19 3 3 14 0 23 -8 13 -10 12 -6 -3 11 -29 35 -64 95 -64 110 0 7
17 -13 38 -46 39 -59 68 -91 77 -82 3 2 -4 14 -15 26 -12 12 -18 22 -14 22 3
0 -1 12 -11 26 -9 14 -14 28 -11 32 3 3 6 1 6 -5 0 -6 6 -13 13 -16 18 -7 22
57 5 70 -7 5 -29 7 -48 3z"/>
<path d="M5086 5458 c-41 -63 7 -179 68 -164 15 4 24 11 21 16 -4 6 1 13 9 16
25 9 21 95 -5 128 -26 34 -72 35 -93 4z"/>
<path d="M5240 5181 c-19 -11 -46 -25 -60 -31 -25 -11 -100 -88 -100 -101 0
-12 98 -21 116 -11 16 9 15 10 -4 16 -26 9 -28 24 -7 52 11 15 15 16 16 4 1
-8 1 -18 0 -22 0 -5 4 -8 9 -8 6 0 10 5 10 10 0 6 6 10 13 10 6 0 24 6 39 14
19 10 28 11 31 3 2 -8 6 -7 11 1 4 7 2 12 -4 12 -6 0 -8 5 -5 10 3 6 2 10 -4
10 -5 0 -13 -4 -16 -10 -9 -15 -25 -12 -25 5 0 7 8 18 18 24 12 7 14 13 7 20
-7 7 -21 5 -45 -8z"/>
<path d="M4892 5109 c-6 -19 -13 -64 -17 -101 -4 -37 -11 -70 -16 -73 -5 -4
-9 -15 -9 -26 0 -10 -5 -19 -12 -19 -6 0 -9 3 -5 6 6 6 -32 54 -43 54 -3 0
-11 -13 -17 -30 -14 -38 -29 -38 -36 -1 -8 39 -53 48 -127 24 -8 -2 -16 -4
-17 -4 -2 -1 -29 -6 -60 -13 -32 -8 -80 -14 -108 -15 -67 -3 -129 -21 -115
-35 5 -5 10 -18 10 -29 0 -10 6 -25 14 -33 8 -7 16 -19 18 -26 3 -9 19 -7 64
7 77 24 104 36 99 45 -2 4 6 17 19 29 20 19 25 20 35 7 7 -8 10 -20 6 -26 -4
-7 25 -9 89 -6 58 3 96 0 96 -5 0 -6 3 -8 8 -6 4 3 28 2 53 -2 33 -5 52 -4 65
6 11 8 33 13 49 11 22 -2 30 1 29 13 -1 8 13 44 30 80 l31 64 -41 40 c-22 22
-49 53 -61 69 l-20 29 -11 -34z"/>
<path d="M5018 4933 c-37 -84 -41 -101 -26 -121 20 -28 52 -21 99 21 32 29 39
41 29 47 -10 6 -7 9 11 12 14 2 23 9 21 17 -2 7 5 23 15 34 18 20 17 20 -4 15
-13 -4 -23 -3 -23 2 0 4 -15 10 -32 13 -18 3 -40 8 -49 12 -12 4 -22 -8 -41
-52z"/>
<path d="M4180 2390 l0 -119 53 -5 c28 -3 96 -7 150 -9 l97 -4 0 117 0 118
-87 6 c-49 3 -116 8 -150 11 l-63 4 0 -119z"/>
<path d="M3385 7530 c-22 -43 -23 -1406 0 -1436 8 -10 15 -14 15 -9 0 6 -5 16
-10 21 -7 7 -9 111 -5 310 6 370 6 417 0 789 -5 291 -5 300 15 327 11 15 16
28 11 28 -6 0 -17 -13 -26 -30z"/>
<path d="M3451 994 c-2 -22 77 -131 128 -176 29 -26 80 -61 114 -77 54 -26 59
-31 39 -37 -35 -10 -21 -28 29 -37 69 -13 2021 -1 2099 13 127 23 193 41 251
71 73 36 77 46 7 15 -75 -33 -89 -38 -128 -43 -19 -2 -439 -5 -932 -5 -777 -2
-898 -4 -898 -16 0 -12 -11 -14 -56 -9 -30 3 -61 10 -67 15 -7 5 -48 12 -92
15 -151 11 -305 77 -389 167 -26 27 -53 50 -60 50 -7 0 -20 15 -29 33 -8 17
-16 27 -16 21z"/>
</g>
</svg>
